<?xml version="1.0" encoding="UTF-8"?>
<!DOCTYPE svg PUBLIC "-//W3C//DTD SVG 1.1//EN" "http://www.w3.org/Graphics/SVG/1.1/DTD/svg11.dtd">
<svg xmlns="http://www.w3.org/2000/svg" version="1.1" width="924px" height="924px" style="shape-rendering:geometricPrecision; text-rendering:geometricPrecision; image-rendering:optimizeQuality; fill-rule:evenodd; clip-rule:evenodd" xmlns:xlink="http://www.w3.org/1999/xlink">
<g><path style="opacity:1" fill="#381042" d="M 399.5,-0.5 C 441.833,-0.5 484.167,-0.5 526.5,-0.5C 568.382,7.77237 607.715,22.7724 644.5,44.5C 650.976,49.9079 657.976,54.5746 665.5,58.5C 666.262,60.2624 667.596,61.2624 669.5,61.5C 671.949,64.5558 674.949,66.8892 678.5,68.5C 680.239,71.2427 682.573,73.2427 685.5,74.5C 687.239,77.2427 689.573,79.2427 692.5,80.5C 700.119,88.7853 708.119,96.7853 716.5,104.5C 718.094,107.764 720.427,110.431 723.5,112.5C 724.419,115.089 726.086,117.089 728.5,118.5C 729.08,120.749 730.413,122.415 732.5,123.5C 733.08,125.749 734.413,127.415 736.5,128.5C 736.427,130.027 737.094,131.027 738.5,131.5C 738.738,133.404 739.738,134.738 741.5,135.5C 741.738,137.404 742.738,138.738 744.5,139.5C 744.427,141.027 745.094,142.027 746.5,142.5C 746.427,144.027 747.094,145.027 748.5,145.5C 748.427,147.027 749.094,148.027 750.5,148.5C 751.338,148.842 751.672,149.508 751.5,150.5C 751.427,152.027 752.094,153.027 753.5,153.5C 753.427,155.027 754.094,156.027 755.5,156.5C 756.338,156.842 756.672,157.508 756.5,158.5C 756.427,160.027 757.094,161.027 758.5,161.5C 759.338,161.842 759.672,162.508 759.5,163.5C 759.427,165.027 760.094,166.027 761.5,166.5C 764.341,170.849 766.674,175.516 768.5,180.5C 768.755,182.967 769.755,184.967 771.5,186.5C 771.837,190.836 773.504,194.503 776.5,197.5C 780.651,209.954 784.984,222.288 789.5,234.5C 789.171,237.228 789.837,239.562 791.5,241.5C 791.336,244.187 791.503,246.854 792,249.5C 792.099,251.653 792.933,253.319 794.5,254.5C 795.962,265.147 797.296,275.813 798.5,286.5C 799.376,303.483 799.709,320.483 799.5,337.5C 798.614,344.457 798.28,351.457 798.5,358.5C 796.042,370.694 793.708,383.027 791.5,395.5C 789.034,399.018 788.034,403.018 788.5,407.5C 788.405,409.786 787.738,411.786 786.5,413.5C 783.547,419.025 781.547,425.025 780.5,431.5C 779.737,435.137 778.403,438.47 776.5,441.5C 774.391,444.874 772.724,448.54 771.5,452.5C 771.752,454.073 772.418,455.406 773.5,456.5C 781.826,474.646 788.659,493.313 794,512.5C 794.827,513.662 795.66,514.829 796.5,516C 801.399,532.433 805.899,548.933 810,565.5C 815.837,593.203 818.337,621.203 817.5,649.5C 814.749,668.327 811.415,687.327 807.5,706.5C 804.804,709.921 803.47,713.921 803.5,718.5C 801.01,721.626 799.677,725.292 799.5,729.5C 798.068,734.478 796.068,739.144 793.5,743.5C 789.329,749.838 785.663,756.504 782.5,763.5C 782.25,765.674 781.25,767.341 779.5,768.5C 776.34,772.148 773.673,776.148 771.5,780.5C 770.094,780.973 769.427,781.973 769.5,783.5C 767.738,784.262 766.738,785.596 766.5,787.5C 764.738,788.262 763.738,789.596 763.5,791.5C 763.5,792.167 763.167,792.5 762.5,792.5C 760.413,793.585 759.08,795.251 758.5,797.5C 758.5,798.167 758.167,798.5 757.5,798.5C 755.413,799.585 754.08,801.251 753.5,803.5C 752.5,805.167 751.167,806.5 749.5,807.5C 744.5,811.833 739.833,816.5 735.5,821.5C 733.5,824.167 731.167,826.5 728.5,828.5C 726.596,828.738 725.262,829.738 724.5,831.5C 723.833,832.833 722.833,833.833 721.5,834.5C 719.973,834.427 718.973,835.094 718.5,836.5C 718.167,837.5 717.5,838.167 716.5,838.5C 714.973,838.427 713.973,839.094 713.5,840.5C 711.909,842.633 709.909,844.299 707.5,845.5C 705.973,845.427 704.973,846.094 704.5,847.5C 702.973,847.427 701.973,848.094 701.5,849.5C 700.564,850.974 699.23,851.974 697.5,852.5C 695.973,852.427 694.973,853.094 694.5,854.5C 692.973,854.427 691.973,855.094 691.5,856.5C 654.769,880.865 614.769,897.865 571.5,907.5C 567.44,907.485 563.44,907.985 559.5,909C 558.944,909.383 558.611,909.883 558.5,910.5C 556.735,911.461 554.735,911.795 552.5,911.5C 549.482,911.335 546.482,911.502 543.5,912C 542.944,912.383 542.611,912.883 542.5,913.5C 542.167,913.5 541.833,913.5 541.5,913.5C 538.15,913.335 534.817,913.502 531.5,914C 530.944,914.383 530.611,914.883 530.5,915.5C 503.391,919.892 476.058,921.559 448.5,920.5C 447.048,919.698 445.382,919.198 443.5,919C 432.175,918.241 420.842,917.741 409.5,917.5C 409.167,917.5 408.833,917.5 408.5,917.5C 403.731,916.111 398.731,915.444 393.5,915.5C 392.833,915.5 392.167,915.5 391.5,915.5C 388.663,913.598 385.329,912.931 381.5,913.5C 371.867,912.375 362.534,910.375 353.5,907.5C 351.485,906.076 349.152,905.41 346.5,905.5C 342.573,905.074 338.907,904.074 335.5,902.5C 332.495,900.723 329.162,899.723 325.5,899.5C 304.376,893.105 284.043,884.772 264.5,874.5C 264.027,873.094 263.027,872.427 261.5,872.5C 259.847,872.34 258.514,871.674 257.5,870.5C 257.027,869.094 256.027,868.427 254.5,868.5C 252.181,868.008 250.181,867.008 248.5,865.5C 248.027,864.094 247.027,863.427 245.5,863.5C 245.027,862.094 244.027,861.427 242.5,861.5C 240.566,860.89 238.899,859.89 237.5,858.5C 237.027,857.094 236.027,856.427 234.5,856.5C 234.027,855.094 233.027,854.427 231.5,854.5C 231.027,853.094 230.027,852.427 228.5,852.5C 228.027,851.094 227.027,850.427 225.5,850.5C 223.596,850.262 222.262,849.262 221.5,847.5C 221.027,846.094 220.027,845.427 218.5,845.5C 217.738,843.738 216.404,842.738 214.5,842.5C 213.415,840.413 211.749,839.08 209.5,838.5C 208.415,836.413 206.749,835.08 204.5,834.5C 202.761,831.757 200.427,829.757 197.5,828.5C 192.11,822.108 186.11,816.441 179.5,811.5C 177.234,807.564 174.234,804.231 170.5,801.5C 169.581,798.911 167.914,796.911 165.5,795.5C 165.262,793.596 164.262,792.262 162.5,791.5C 162.262,789.596 161.262,788.262 159.5,787.5C 146.067,767.301 134.733,745.968 125.5,723.5C 121.463,710.408 118.296,697.075 116,683.5C 113.844,670.581 112.678,657.581 112.5,644.5C 111.834,634.514 111.501,624.514 111.5,614.5C 114.154,571.078 123.654,529.078 140,488.5C 144.473,478.221 149.473,468.221 155,458.5C 155.74,457.251 155.573,456.251 154.5,455.5C 155.412,454.262 155.579,452.928 155,451.5C 150.036,440.073 145.203,428.739 140.5,417.5C 133.215,391.688 128.381,365.355 126,338.5C 125.303,317.467 125.803,296.467 127.5,275.5C 130.707,264.131 133.04,252.465 134.5,240.5C 150.969,181.568 181.302,130.901 225.5,88.5C 264.981,52.0851 310.315,25.4185 361.5,8.5C 374.336,5.78969 387.003,2.78969 399.5,-0.5 Z"/></g>
<g><path style="opacity:0.008" fill="#e3dde4" d="M 392.5,-0.5 C 394.833,-0.5 397.167,-0.5 399.5,-0.5C 387.003,2.78969 374.336,5.78969 361.5,8.5C 371.703,5.03284 382.036,2.03284 392.5,-0.5 Z"/></g>
<g><path style="opacity:0.035" fill="#e1dbe2" d="M 526.5,-0.5 C 529.5,-0.5 532.5,-0.5 535.5,-0.5C 567.194,6.66774 597.528,17.8344 626.5,33C 632.942,36.3018 638.942,40.1352 644.5,44.5C 607.715,22.7724 568.382,7.77237 526.5,-0.5 Z"/></g>
<g><path style="opacity:1" fill="#6f04f1" d="M 760.5,243.5 C 761.39,249.166 763.057,254.5 765.5,259.5C 767.102,263.239 768.102,267.239 768.5,271.5C 768.911,279.115 770.245,286.449 772.5,293.5C 773.038,295.117 773.371,296.784 773.5,298.5C 774.286,320.491 774.62,342.491 774.5,364.5C 773.501,373.827 772.501,383.16 771.5,392.5C 770.778,392.918 770.278,393.584 770,394.5C 769.452,398.17 768.952,401.837 768.5,405.5C 764.476,426.285 758.809,446.618 751.5,466.5C 750.034,467.347 749.2,468.68 749,470.5C 749.775,480.321 752.275,489.654 756.5,498.5C 757.057,503.165 758.39,507.498 760.5,511.5C 762.288,515.953 763.788,520.62 765,525.5C 766.321,533.594 767.821,541.594 769.5,549.5C 769.444,554.731 770.111,559.731 771.5,564.5C 772.397,584.484 772.73,604.484 772.5,624.5C 771.521,648.374 767.521,671.707 760.5,694.5C 758.595,698.216 757.261,702.216 756.5,706.5C 744.54,743.913 725.207,777.08 698.5,806C 695.953,808.054 693.286,809.887 690.5,811.5C 691.343,806.464 692.343,801.464 693.5,796.5C 695.773,791.549 696.773,786.216 696.5,780.5C 696.5,776.5 696.5,772.5 696.5,768.5C 697.166,763.344 697.499,758.011 697.5,752.5C 697.562,742.63 696.895,732.964 695.5,723.5C 695.5,723.167 695.5,722.833 695.5,722.5C 695.638,717.586 694.972,712.919 693.5,708.5C 693.72,703.9 693.054,699.567 691.5,695.5C 690.3,688.367 688.633,681.367 686.5,674.5C 686.59,671.848 685.924,669.515 684.5,667.5C 683.61,661.834 681.943,656.5 679.5,651.5C 666.214,612.907 644.881,579.574 615.5,551.5C 612.064,547.943 608.397,544.609 604.5,541.5C 618.105,534.028 631.771,526.528 645.5,519C 687.129,492.716 717.962,457.216 738,412.5C 743.895,396.252 748.229,379.586 751,362.5C 751.5,347.504 751.667,332.504 751.5,317.5C 751.453,310.889 750.453,304.556 748.5,298.5C 748.102,293.588 747.102,288.921 745.5,284.5C 744.943,279.835 743.61,275.502 741.5,271.5C 719.877,213.384 678.21,180.884 616.5,174C 562.125,174.079 520.292,196.912 491,242.5C 481.441,258.095 474.607,274.762 470.5,292.5C 468.723,295.505 467.723,298.838 467.5,302.5C 467.5,303.167 467.5,303.833 467.5,304.5C 465.4,310.18 464.4,316.18 464.5,322.5C 464.5,323.167 464.5,323.833 464.5,324.5C 463.732,325.263 463.232,326.263 463,327.5C 462.768,326.263 462.268,325.263 461.5,324.5C 461.533,320.131 461.2,315.798 460.5,311.5C 460.138,306.248 459.138,301.248 457.5,296.5C 457.768,294.901 457.434,293.568 456.5,292.5C 456.59,289.848 455.924,287.515 454.5,285.5C 454.277,281.838 453.277,278.505 451.5,275.5C 433.788,224.803 399.122,191.97 347.5,177C 317.251,169.786 288.251,173.119 260.5,187C 214.518,210.803 186.185,247.97 175.5,298.5C 173.783,301.845 173.116,305.511 173.5,309.5C 172.006,316.103 171.339,322.936 171.5,330C 171.501,334.68 171.834,339.18 172.5,343.5C 173.127,348.141 173.46,352.807 173.5,357.5C 173.116,361.489 173.783,365.155 175.5,368.5C 177.383,375.806 179.05,383.139 180.5,390.5C 181.009,395.703 182.676,400.37 185.5,404.5C 206.341,456.514 241.007,496.68 289.5,525C 299.436,530.467 309.436,535.633 319.5,540.5C 315.527,543.806 311.86,547.473 308.5,551.5C 278.851,582.159 257.518,617.825 244.5,658.5C 243.076,660.515 242.41,662.848 242.5,665.5C 238.875,676.333 236.042,687.333 234,698.5C 233.166,706.515 232.332,714.515 231.5,722.5C 230.339,738.328 230.172,754.328 231,770.5C 231.186,773.036 231.686,775.369 232.5,777.5C 233.514,786.22 234.847,794.887 236.5,803.5C 236.41,806.152 237.076,808.485 238.5,810.5C 239.434,811.568 239.768,812.901 239.5,814.5C 239.41,817.152 240.076,819.485 241.5,821.5C 241.5,821.833 241.5,822.167 241.5,822.5C 239.745,821.928 238.078,821.094 236.5,820C 215.012,796.532 196.845,770.698 182,742.5C 177.737,730.383 173.07,718.383 168,706.5C 152.778,651.412 149.611,595.746 158.5,539.5C 159.806,534.384 160.473,529.051 160.5,523.5C 164.36,505.441 168.527,487.441 173,469.5C 173.736,466.408 173.569,463.408 172.5,460.5C 170.401,452.862 167.734,445.529 164.5,438.5C 162.039,427.117 159.372,415.783 156.5,404.5C 155.913,398.963 154.913,393.63 153.5,388.5C 153.806,385.615 153.473,382.948 152.5,380.5C 152.414,373.963 151.747,367.63 150.5,361.5C 150.144,340.459 150.811,319.459 152.5,298.5C 152.5,298.167 152.5,297.833 152.5,297.5C 154.375,291.431 155.375,285.098 155.5,278.5C 156.925,272.19 158.592,265.857 160.5,259.5C 163.276,253.501 165.276,247.167 166.5,240.5C 198.439,160.38 253.773,101.88 332.5,65C 402.603,34.5239 474.603,29.1906 548.5,49C 650.633,79.6369 721.3,144.47 760.5,243.5 Z"/></g>
<g><path style="opacity:0.004" fill="#e0dbe1" d="M 644.5,44.5 C 652.049,48.3896 659.049,53.0563 665.5,58.5C 657.976,54.5746 650.976,49.9079 644.5,44.5 Z"/></g>
<g><path style="opacity:0.004" fill="#e1dde3" d="M 665.5,58.5 C 667.404,58.7376 668.738,59.7376 669.5,61.5C 667.596,61.2624 666.262,60.2624 665.5,58.5 Z"/></g>
<g><path style="opacity:0.137" fill="#ded9e0" d="M 361.5,8.5 C 310.315,25.4185 264.981,52.0851 225.5,88.5C 225.167,88.5 224.833,88.5 224.5,88.5C 263.482,50.8265 309.149,24.1599 361.5,8.5 Z"/></g>
<g><path style="opacity:0.004" fill="#e1dbe2" d="M 669.5,61.5 C 673.051,63.1108 676.051,65.4442 678.5,68.5C 674.949,66.8892 671.949,64.5558 669.5,61.5 Z"/></g>
<g><path style="opacity:0.004" fill="#d7d1d9" d="M 678.5,68.5 C 681.427,69.7573 683.761,71.7573 685.5,74.5C 682.573,73.2427 680.239,71.2427 678.5,68.5 Z"/></g>
<g><path style="opacity:0.004" fill="#d5cfd7" d="M 685.5,74.5 C 688.427,75.7573 690.761,77.7573 692.5,80.5C 689.573,79.2427 687.239,77.2427 685.5,74.5 Z"/></g>
<g><path style="opacity:0.004" fill="#d7d0d8" d="M 692.5,80.5 C 701.521,87.5211 709.521,95.5211 716.5,104.5C 708.119,96.7853 700.119,88.7853 692.5,80.5 Z"/></g>
<g><path style="opacity:0.596" fill="#c6bcc9" d="M 716.5,104.5 C 719.573,106.569 721.906,109.236 723.5,112.5C 720.427,110.431 718.094,107.764 716.5,104.5 Z"/></g>
<g><path style="opacity:0.396" fill="#c3b9c5" d="M 224.5,88.5 C 224.833,88.5 225.167,88.5 225.5,88.5C 181.302,130.901 150.969,181.568 134.5,240.5C 149.657,180.823 179.657,130.157 224.5,88.5 Z"/></g>
<g><path style="opacity:0.612" fill="#beb3c1" d="M 723.5,112.5 C 725.914,113.911 727.581,115.911 728.5,118.5C 726.086,117.089 724.419,115.089 723.5,112.5 Z"/></g>
<g><path style="opacity:0.243" fill="#c8c1cb" d="M 728.5,118.5 C 730.587,119.585 731.92,121.251 732.5,123.5C 730.413,122.415 729.08,120.749 728.5,118.5 Z"/></g>
<g><path style="opacity:0.227" fill="#cbc3cd" d="M 732.5,123.5 C 734.587,124.585 735.92,126.251 736.5,128.5C 734.413,127.415 733.08,125.749 732.5,123.5 Z"/></g>
<g><path style="opacity:0.322" fill="#c5bec7" d="M 736.5,128.5 C 737.906,128.973 738.573,129.973 738.5,131.5C 737.094,131.027 736.427,130.027 736.5,128.5 Z"/></g>
<g><path style="opacity:0.424" fill="#bdb4bf" d="M 738.5,131.5 C 740.262,132.262 741.262,133.596 741.5,135.5C 739.738,134.738 738.738,133.404 738.5,131.5 Z"/></g>
<g><path style="opacity:0.345" fill="#c9c2cb" d="M 741.5,135.5 C 743.262,136.262 744.262,137.596 744.5,139.5C 742.738,138.738 741.738,137.404 741.5,135.5 Z"/></g>
<g><path style="opacity:0.259" fill="#ccc7cd" d="M 744.5,139.5 C 745.906,139.973 746.573,140.973 746.5,142.5C 745.094,142.027 744.427,141.027 744.5,139.5 Z"/></g>
<g><path style="opacity:0.231" fill="#d0cbd1" d="M 746.5,142.5 C 747.906,142.973 748.573,143.973 748.5,145.5C 747.094,145.027 746.427,144.027 746.5,142.5 Z"/></g>
<g><path style="opacity:0.2" fill="#d4d0d5" d="M 748.5,145.5 C 749.906,145.973 750.573,146.973 750.5,148.5C 749.094,148.027 748.427,147.027 748.5,145.5 Z"/></g>
<g><path style="opacity:0.333" fill="#c1b8c2" d="M 751.5,150.5 C 752.906,150.973 753.573,151.973 753.5,153.5C 752.094,153.027 751.427,152.027 751.5,150.5 Z"/></g>
<g><path style="opacity:0.282" fill="#c7bfc8" d="M 753.5,153.5 C 754.906,153.973 755.573,154.973 755.5,156.5C 754.094,156.027 753.427,155.027 753.5,153.5 Z"/></g>
<g><path style="opacity:0.224" fill="#cec9cf" d="M 756.5,158.5 C 757.906,158.973 758.573,159.973 758.5,161.5C 757.094,161.027 756.427,160.027 756.5,158.5 Z"/></g>
<g><path style="opacity:0.165" fill="#d7d3d8" d="M 759.5,163.5 C 760.906,163.973 761.573,164.973 761.5,166.5C 760.094,166.027 759.427,165.027 759.5,163.5 Z"/></g>
<g><path style="opacity:1" fill="#fbf9f6" d="M 451.5,275.5 C 451.723,279.162 452.723,282.495 454.5,285.5C 454.41,288.152 455.076,290.485 456.5,292.5C 457.434,293.568 457.768,294.901 457.5,296.5C 457.124,301.894 458.124,306.894 460.5,311.5C 461.2,315.798 461.533,320.131 461.5,324.5C 461.11,328.394 461.777,332.06 463.5,335.5C 464.489,331.893 464.823,328.226 464.5,324.5C 464.5,323.833 464.5,323.167 464.5,322.5C 465.857,316.69 466.857,310.69 467.5,304.5C 467.5,303.833 467.5,303.167 467.5,302.5C 469.277,299.495 470.277,296.162 470.5,292.5C 474.607,274.762 481.441,258.095 491,242.5C 520.292,196.912 562.125,174.079 616.5,174C 678.21,180.884 719.877,213.384 741.5,271.5C 742.057,276.165 743.39,280.498 745.5,284.5C 747.102,288.921 748.102,293.588 748.5,298.5C 748.625,305.098 749.625,311.431 751.5,317.5C 751.667,332.504 751.5,347.504 751,362.5C 748.229,379.586 743.895,396.252 738,412.5C 717.962,457.216 687.129,492.716 645.5,519C 631.771,526.528 618.105,534.028 604.5,541.5C 532.704,568.928 458.704,575.094 382.5,560C 360.741,555.801 339.741,549.301 319.5,540.5C 309.436,535.633 299.436,530.467 289.5,525C 241.007,496.68 206.341,456.514 185.5,404.5C 184.204,399.607 182.538,394.94 180.5,390.5C 179.05,383.139 177.383,375.806 175.5,368.5C 175.192,364.64 174.525,360.974 173.5,357.5C 173.46,352.807 173.127,348.141 172.5,343.5C 172.373,332.148 172.706,320.815 173.5,309.5C 174.525,306.026 175.192,302.36 175.5,298.5C 186.185,247.97 214.518,210.803 260.5,187C 288.251,173.119 317.251,169.786 347.5,177C 399.122,191.97 433.788,224.803 451.5,275.5 Z"/></g>
<g><path style="opacity:0.404" fill="#b4aab7" d="M 768.5,180.5 C 770.245,182.033 771.245,184.033 771.5,186.5C 769.755,184.967 768.755,182.967 768.5,180.5 Z"/></g>
<g><path style="opacity:0.792" fill="#a291a5" d="M 771.5,186.5 C 773.951,189.74 775.618,193.407 776.5,197.5C 773.504,194.503 771.837,190.836 771.5,186.5 Z"/></g>
<g><path style="opacity:0.718" fill="#ac9fb0" d="M 776.5,197.5 C 782.199,209.26 786.532,221.593 789.5,234.5C 784.984,222.288 780.651,209.954 776.5,197.5 Z"/></g>
<g><path style="opacity:0.443" fill="#b2a6b4" d="M 789.5,234.5 C 790.924,236.515 791.59,238.848 791.5,241.5C 789.837,239.562 789.171,237.228 789.5,234.5 Z"/></g>
<g><path style="opacity:1" fill="#530999" d="M 166.5,240.5 C 165.276,247.167 163.276,253.501 160.5,259.5C 161.724,252.833 163.724,246.499 166.5,240.5 Z"/></g>
<g><path style="opacity:1" fill="#530999" d="M 760.5,243.5 C 762.943,248.5 764.61,253.834 765.5,259.5C 763.057,254.5 761.39,249.166 760.5,243.5 Z"/></g>
<g><path style="opacity:0.875" fill="#8f7b93" d="M 791.5,241.5 C 793.118,245.575 794.118,249.908 794.5,254.5C 792.933,253.319 792.099,251.653 792,249.5C 791.503,246.854 791.336,244.187 791.5,241.5 Z"/></g>
<g><path style="opacity:0.757" fill="#a99dac" d="M 794.5,254.5 C 797.788,267.172 799.788,280.172 800.5,293.5C 799.833,291.167 799.167,288.833 798.5,286.5C 797.296,275.813 795.962,265.147 794.5,254.5 Z"/></g>
<g><path style="opacity:0.643" fill="#a798aa" d="M 134.5,240.5 C 133.04,252.465 130.707,264.131 127.5,275.5C 128.446,263.435 130.78,251.768 134.5,240.5 Z"/></g>
<g><path style="opacity:1" fill="#391142" d="M 347.5,313.5 C 347.524,319.857 347.19,326.19 346.5,332.5C 340.272,359.225 323.438,373.558 296,375.5C 274.188,373.589 258.854,362.589 250,342.5C 248.26,337.965 247.094,333.298 246.5,328.5C 246.326,321.465 246.659,314.465 247.5,307.5C 251.885,289.276 262.885,276.776 280.5,270C 309.014,263.344 330.181,272.844 344,298.5C 346.27,303.246 347.437,308.246 347.5,313.5 Z"/></g>
<g><path style="opacity:1" fill="#391243" d="M 623.5,267.5 C 654.06,267.903 672.894,282.903 680,312.5C 682.576,333.836 675.409,351.003 658.5,364C 639.178,375.251 619.845,375.251 600.5,364C 575.448,342.549 570.948,317.382 587,288.5C 596.341,276.418 608.508,269.418 623.5,267.5 Z"/></g>
<g><path style="opacity:1" fill="#caa1f5" d="M 741.5,271.5 C 743.61,275.502 744.943,279.835 745.5,284.5C 743.39,280.498 742.057,276.165 741.5,271.5 Z"/></g>
<g><path style="opacity:1" fill="#caa0f5" d="M 451.5,275.5 C 453.277,278.505 454.277,281.838 454.5,285.5C 452.723,282.495 451.723,279.162 451.5,275.5 Z"/></g>
<g><path style="opacity:1" fill="#5808a9" d="M 768.5,271.5 C 770.966,278.508 772.3,285.842 772.5,293.5C 770.245,286.449 768.911,279.115 768.5,271.5 Z"/></g>
<g><path style="opacity:1" fill="#f8f5f3" d="M 330.5,293.5 C 331.162,297.466 331.495,301.466 331.5,305.5C 330.029,312.604 325.695,317.104 318.5,319C 301.313,319.811 293.813,311.645 296,294.5C 303.436,282.831 313.269,280.331 325.5,287C 327.066,289.326 328.732,291.492 330.5,293.5 Z"/></g>
<g><path style="opacity:1" fill="#f8f5f3" d="M 628.5,305.5 C 628.505,301.466 628.838,297.466 629.5,293.5C 638.387,281.402 648.553,280.402 660,290.5C 666.9,302.975 664.067,312.475 651.5,319C 639.467,321.658 631.8,317.158 628.5,305.5 Z"/></g>
<g><path style="opacity:1" fill="#53099a" d="M 155.5,278.5 C 155.375,285.098 154.375,291.431 152.5,297.5C 152.547,290.889 153.547,284.556 155.5,278.5 Z"/></g>
<g><path style="opacity:1" fill="#c9a0f5" d="M 454.5,285.5 C 455.924,287.515 456.59,289.848 456.5,292.5C 455.076,290.485 454.41,288.152 454.5,285.5 Z"/></g>
<g><path style="opacity:1" fill="#9d889f" d="M 330.5,293.5 C 332.017,295.462 332.684,297.795 332.5,300.5C 332.493,302.369 332.16,304.036 331.5,305.5C 331.495,301.466 331.162,297.466 330.5,293.5 Z"/></g>
<g><path style="opacity:1" fill="#cca4f5" d="M 470.5,292.5 C 470.277,296.162 469.277,299.495 467.5,302.5C 467.723,298.838 468.723,295.505 470.5,292.5 Z"/></g>
<g><path style="opacity:1" fill="#aa99ac" d="M 629.5,293.5 C 628.838,297.466 628.505,301.466 628.5,305.5C 627.84,304.036 627.507,302.369 627.5,300.5C 627.316,297.795 627.983,295.462 629.5,293.5 Z"/></g>
<g><path style="opacity:1" fill="#b277f4" d="M 175.5,298.5 C 175.192,302.36 174.525,306.026 173.5,309.5C 173.116,305.511 173.783,301.845 175.5,298.5 Z"/></g>
<g><path style="opacity:1" fill="#d2adf6" d="M 457.5,296.5 C 459.138,301.248 460.138,306.248 460.5,311.5C 458.124,306.894 457.124,301.894 457.5,296.5 Z"/></g>
<g><path style="opacity:1" fill="#bc87f4" d="M 467.5,304.5 C 466.857,310.69 465.857,316.69 464.5,322.5C 464.4,316.18 465.4,310.18 467.5,304.5 Z"/></g>
<g><path style="opacity:1" fill="#d2aff6" d="M 748.5,298.5 C 750.453,304.556 751.453,310.889 751.5,317.5C 749.625,311.431 748.625,305.098 748.5,298.5 Z"/></g>
<g><path style="opacity:1" fill="#97829a" d="M 347.5,313.5 C 348.164,315.978 348.497,318.645 348.5,321.5C 348.706,325.469 348.039,329.135 346.5,332.5C 347.19,326.19 347.524,319.857 347.5,313.5 Z"/></g>
<g><path style="opacity:0.831" fill="#846c89" d="M 798.5,286.5 C 799.167,288.833 799.833,291.167 800.5,293.5C 801.756,308.318 801.756,322.984 800.5,337.5C 800.167,337.5 799.833,337.5 799.5,337.5C 799.709,320.483 799.376,303.483 798.5,286.5 Z"/></g>
<g><path style="opacity:1" fill="#8a728e" d="M 247.5,307.5 C 246.659,314.465 246.326,321.465 246.5,328.5C 245.347,322.347 245.18,316.014 246,309.5C 246.278,308.584 246.778,307.918 247.5,307.5 Z"/></g>
<g><path style="opacity:0.392" fill="#b0a4b2" d="M 127.5,275.5 C 125.803,296.467 125.303,317.467 126,338.5C 128.381,365.355 133.215,391.688 140.5,417.5C 133.024,397.251 128.19,376.251 126,354.5C 123.113,328.003 123.613,301.67 127.5,275.5 Z"/></g>
<g><path style="opacity:1" fill="#ebe6e7" d="M 280.5,329.5 C 288.061,328.86 290.061,331.693 286.5,338C 280.03,338.678 278.03,335.845 280.5,329.5 Z"/></g>
<g><path style="opacity:1" fill="#e9e4e6" d="M 615.5,329.5 C 618.722,329.724 620.722,331.391 621.5,334.5C 621.167,338.989 618.833,340.489 614.5,339C 611.718,335.511 612.051,332.344 615.5,329.5 Z"/></g>
<g><path style="opacity:1" fill="#5c07b7" d="M 773.5,298.5 C 774.319,301.305 774.819,304.305 775,307.5C 775.829,326.671 775.662,345.671 774.5,364.5C 774.62,342.491 774.286,320.491 773.5,298.5 Z"/></g>
<g><path style="opacity:1" fill="#d0abf5" d="M 461.5,324.5 C 462.268,325.263 462.768,326.263 463,327.5C 463.232,326.263 463.732,325.263 464.5,324.5C 464.823,328.226 464.489,331.893 463.5,335.5C 461.777,332.06 461.11,328.394 461.5,324.5 Z"/></g>
<g><path style="opacity:1" fill="#ae72f4" d="M 173.5,309.5 C 172.706,320.815 172.373,332.148 172.5,343.5C 171.834,339.18 171.501,334.68 171.5,330C 171.339,322.936 172.006,316.103 173.5,309.5 Z"/></g>
<g><path style="opacity:1" fill="#54099e" d="M 152.5,298.5 C 150.811,319.459 150.144,340.459 150.5,361.5C 149.338,345.005 149.172,328.338 150,311.5C 150.149,306.899 150.982,302.566 152.5,298.5 Z"/></g>
<g><path style="opacity:1" fill="#fcbc1b" d="M 455.5,336.5 C 479.177,335.282 498.677,343.615 514,361.5C 519.639,369.05 520.972,377.383 518,386.5C 508.088,406.748 493.588,422.914 474.5,435C 470.254,437.542 465.754,439.376 461,440.5C 447.101,436.028 435.434,428.028 426,416.5C 415.639,405.277 409.139,392.111 406.5,377C 406.656,372.543 407.822,368.376 410,364.5C 421.38,348.899 436.547,339.565 455.5,336.5 Z"/></g>
<g><path style="opacity:0.651" fill="#9b899f" d="M 799.5,337.5 C 799.833,337.5 800.167,337.5 800.5,337.5C 800.741,344.73 800.075,351.73 798.5,358.5C 798.28,351.457 798.614,344.457 799.5,337.5 Z"/></g>
<g><path style="opacity:1" fill="#ac6df4" d="M 173.5,357.5 C 174.525,360.974 175.192,364.64 175.5,368.5C 173.783,365.155 173.116,361.489 173.5,357.5 Z"/></g>
<g><path style="opacity:1" fill="#510995" d="M 150.5,361.5 C 151.747,367.63 152.414,373.963 152.5,380.5C 150.752,374.426 150.085,368.093 150.5,361.5 Z"/></g>
<g><path style="opacity:1" fill="#f08f0d" d="M 417.5,376.5 C 446.747,395.936 476.414,396.436 506.5,378C 507.5,377.333 508.5,377.333 509.5,378C 500.068,393.433 487.401,405.433 471.5,414C 464.203,416.397 457.203,415.731 450.5,412C 435.824,403.494 424.824,391.66 417.5,376.5 Z"/></g>
<g><path style="opacity:1" fill="#6f3c9b" d="M 271.5,379.5 C 287.895,378.182 302.895,382.015 316.5,391C 326.75,398.732 328.916,408.232 323,419.5C 308.521,434.885 290.688,441.385 269.5,439C 253.81,437.58 241.644,430.413 233,417.5C 231.607,412.905 231.274,408.239 232,403.5C 237.305,394.532 244.805,388.032 254.5,384C 260.211,382.166 265.878,380.666 271.5,379.5 Z"/></g>
<g><path style="opacity:0.286" fill="#b3a9b5" d="M 798.5,358.5 C 797.55,371.216 795.217,383.549 791.5,395.5C 793.708,383.027 796.042,370.694 798.5,358.5 Z"/></g>
<g><path style="opacity:1" fill="#6f3d9c" d="M 640.5,381.5 C 657.812,380.575 673.479,385.075 687.5,395C 695.372,402.91 696.538,411.743 691,421.5C 681.157,432.002 668.991,437.502 654.5,438C 637.612,440.102 621.945,436.769 607.5,428C 598.278,420.091 596.112,410.591 601,399.5C 611.788,388.186 624.955,382.186 640.5,381.5 Z"/></g>
<g><path style="opacity:1" fill="#b47af4" d="M 180.5,390.5 C 182.538,394.94 184.204,399.607 185.5,404.5C 182.676,400.37 181.009,395.703 180.5,390.5 Z"/></g>
<g><path style="opacity:1" fill="#4b0b7f" d="M 153.5,388.5 C 154.913,393.63 155.913,398.963 156.5,404.5C 154.227,399.549 153.227,394.216 153.5,388.5 Z"/></g>
<g><path style="opacity:0.059" fill="#b9b0bc" d="M 791.5,395.5 C 791.102,399.761 790.102,403.761 788.5,407.5C 788.034,403.018 789.034,399.018 791.5,395.5 Z"/></g>
<g><path style="opacity:1" fill="#54099c" d="M 771.5,392.5 C 771.237,397.124 770.237,401.458 768.5,405.5C 768.952,401.837 769.452,398.17 770,394.5C 770.278,393.584 770.778,392.918 771.5,392.5 Z"/></g>
<g><path style="opacity:0.584" fill="#bcb1bf" d="M 140.5,417.5 C 145.203,428.739 150.036,440.073 155,451.5C 155.579,452.928 155.412,454.262 154.5,455.5C 151.167,456.833 147.833,458.167 144.5,459.5C 147.69,457.406 150.69,455.072 153.5,452.5C 148.175,441.189 143.841,429.523 140.5,417.5 Z"/></g>
<g><path style="opacity:0.251" fill="#b1a4b4" d="M 786.5,413.5 C 785.473,419.915 783.473,425.915 780.5,431.5C 781.547,425.025 783.547,419.025 786.5,413.5 Z"/></g>
<g><path style="opacity:1" fill="#4e0b89" d="M 164.5,438.5 C 167.734,445.529 170.401,452.862 172.5,460.5C 171.883,460.389 171.383,460.056 171,459.5C 168.518,452.556 166.351,445.556 164.5,438.5 Z"/></g>
<g><path style="opacity:0.576" fill="#b2a4b5" d="M 776.5,441.5 C 775.71,445.206 774.71,448.872 773.5,452.5C 774.323,454.577 775.656,456.244 777.5,457.5C 776.167,457.167 774.833,456.833 773.5,456.5C 772.418,455.406 771.752,454.073 771.5,452.5C 772.724,448.54 774.391,444.874 776.5,441.5 Z"/></g>
<g><path style="opacity:1" fill="#700af1" d="M 154.5,455.5 C 155.573,456.251 155.74,457.251 155,458.5C 149.473,468.221 144.473,478.221 140,488.5C 123.654,529.078 114.154,571.078 111.5,614.5C 110.233,624.026 110.233,633.692 111.5,643.5C 110.167,643.5 109.5,644.167 109.5,645.5C 90.416,667.042 66.416,679.042 37.5,681.5C 35.8333,681.5 34.1667,681.5 32.5,681.5C 32.9227,679.219 32.256,677.552 30.5,676.5C 25.0916,658.99 24.425,641.324 28.5,623.5C 29.913,620.781 30.5797,617.781 30.5,614.5C 31.7682,612.095 32.4349,609.428 32.5,606.5C 35.072,600.784 37.072,594.784 38.5,588.5C 39.9313,587.22 40.5979,585.553 40.5,583.5C 42.2927,581.574 43.2927,579.241 43.5,576.5C 52.1533,559.186 61.8199,542.52 72.5,526.5C 74.984,524.2 76.984,521.533 78.5,518.5C 84.1759,512.823 89.5092,506.823 94.5,500.5C 98.8333,495.5 103.5,490.833 108.5,486.5C 112.921,483.29 116.921,479.623 120.5,475.5C 122.404,475.262 123.738,474.262 124.5,472.5C 126.404,472.262 127.738,471.262 128.5,469.5C 130.027,469.573 131.027,468.906 131.5,467.5C 133.027,467.573 134.027,466.906 134.5,465.5C 136.027,465.573 137.027,464.906 137.5,463.5C 137.842,462.662 138.508,462.328 139.5,462.5C 141.027,462.573 142.027,461.906 142.5,460.5C 142.842,459.662 143.508,459.328 144.5,459.5C 147.833,458.167 151.167,456.833 154.5,455.5 Z"/></g>
<g><path style="opacity:1" fill="#700af1" d="M 773.5,456.5 C 774.833,456.833 776.167,457.167 777.5,457.5C 784.478,462.992 791.812,467.992 799.5,472.5C 800.262,474.262 801.596,475.262 803.5,475.5C 804.585,477.587 806.251,478.92 808.5,479.5C 809.911,481.914 811.911,483.581 814.5,484.5C 816.569,487.573 819.236,489.906 822.5,491.5C 827.833,497.5 833.5,503.167 839.5,508.5C 840.5,508.833 841.167,509.5 841.5,510.5C 842.757,513.427 844.757,515.761 847.5,517.5C 848.419,520.089 850.086,522.089 852.5,523.5C 852.738,525.404 853.738,526.738 855.5,527.5C 855.738,529.404 856.738,530.738 858.5,531.5C 858.738,533.404 859.738,534.738 861.5,535.5C 861.427,537.027 862.094,538.027 863.5,538.5C 863.427,540.027 864.094,541.027 865.5,541.5C 865.427,543.027 866.094,544.027 867.5,544.5C 868.338,544.842 868.672,545.508 868.5,546.5C 868.427,548.027 869.094,549.027 870.5,549.5C 870.75,551.674 871.75,553.341 873.5,554.5C 874.674,555.514 875.34,556.847 875.5,558.5C 876.659,562.151 878.326,565.485 880.5,568.5C 883.257,572.416 885.257,576.75 886.5,581.5C 886.054,584.01 886.72,586.01 888.5,587.5C 888.345,590.716 889.345,593.383 891.5,595.5C 892.434,596.568 892.768,597.901 892.5,599.5C 892.171,602.228 892.837,604.562 894.5,606.5C 901.855,628.092 902.189,649.759 895.5,671.5C 893.72,672.99 893.054,674.99 893.5,677.5C 892.962,679.117 892.629,680.784 892.5,682.5C 868.884,682.17 847.884,674.837 829.5,660.5C 829.027,659.094 828.027,658.427 826.5,658.5C 824.833,657.5 823.5,656.167 822.5,654.5C 821.738,652.738 820.404,651.738 818.5,651.5C 818.167,650.833 817.833,650.167 817.5,649.5C 818.337,621.203 815.837,593.203 810,565.5C 805.899,548.933 801.399,532.433 796.5,516C 795.66,514.829 794.827,513.662 794,512.5C 788.659,493.313 781.826,474.646 773.5,456.5 Z"/></g>
<g><path style="opacity:0.235" fill="#e3dceb" d="M 142.5,460.5 C 142.027,461.906 141.027,462.573 139.5,462.5C 139.973,461.094 140.973,460.427 142.5,460.5 Z"/></g>
<g><path style="opacity:0.008" fill="#eae4f2" d="M 777.5,457.5 C 785.535,461.514 792.868,466.514 799.5,472.5C 791.812,467.992 784.478,462.992 777.5,457.5 Z"/></g>
<g><path style="opacity:0.345" fill="#d8cfe4" d="M 137.5,463.5 C 137.027,464.906 136.027,465.573 134.5,465.5C 134.973,464.094 135.973,463.427 137.5,463.5 Z"/></g>
<g><path style="opacity:0.235" fill="#e3dceb" d="M 134.5,465.5 C 134.027,466.906 133.027,467.573 131.5,467.5C 131.973,466.094 132.973,465.427 134.5,465.5 Z"/></g>
<g><path style="opacity:0.235" fill="#e3dceb" d="M 131.5,467.5 C 131.027,468.906 130.027,469.573 128.5,469.5C 128.973,468.094 129.973,467.427 131.5,467.5 Z"/></g>
<g><path style="opacity:1" fill="#530a98" d="M 751.5,466.5 C 750.738,468.956 750.071,471.456 749.5,474C 752.146,482.101 754.479,490.268 756.5,498.5C 752.275,489.654 749.775,480.321 749,470.5C 749.2,468.68 750.034,467.347 751.5,466.5 Z"/></g>
<g><path style="opacity:0.235" fill="#ded6e7" d="M 128.5,469.5 C 127.738,471.262 126.404,472.262 124.5,472.5C 125.262,470.738 126.596,469.738 128.5,469.5 Z"/></g>
<g><path style="opacity:0.004" fill="#eae3f2" d="M 799.5,472.5 C 801.404,472.738 802.738,473.738 803.5,475.5C 801.596,475.262 800.262,474.262 799.5,472.5 Z"/></g>
<g><path style="opacity:0.235" fill="#ded6e7" d="M 124.5,472.5 C 123.738,474.262 122.404,475.262 120.5,475.5C 121.262,473.738 122.596,472.738 124.5,472.5 Z"/></g>
<g><path style="opacity:0.004" fill="#e8e1f0" d="M 803.5,475.5 C 805.749,476.08 807.415,477.413 808.5,479.5C 806.251,478.92 804.585,477.587 803.5,475.5 Z"/></g>
<g><path style="opacity:0.004" fill="#e5dcee" d="M 808.5,479.5 C 811.089,480.419 813.089,482.086 814.5,484.5C 811.911,483.581 809.911,481.914 808.5,479.5 Z"/></g>
<g><path style="opacity:0.235" fill="#dbcfe7" d="M 120.5,475.5 C 116.921,479.623 112.921,483.29 108.5,486.5C 108.167,486.5 107.833,486.5 107.5,486.5C 111.268,482.123 115.601,478.456 120.5,475.5 Z"/></g>
<g><path style="opacity:0.004" fill="#e2d9ed" d="M 814.5,484.5 C 817.764,486.094 820.431,488.427 822.5,491.5C 819.236,489.906 816.569,487.573 814.5,484.5 Z"/></g>
<g><path style="opacity:0.592" fill="#c8a0f2" d="M 107.5,486.5 C 107.833,486.5 108.167,486.5 108.5,486.5C 103.5,490.833 98.8333,495.5 94.5,500.5C 94.5,500.167 94.5,499.833 94.5,499.5C 97.8333,494.167 102.167,489.833 107.5,486.5 Z"/></g>
<g><path style="opacity:0.004" fill="#e3dbed" d="M 822.5,491.5 C 829.167,496.167 834.833,501.833 839.5,508.5C 833.5,503.167 827.833,497.5 822.5,491.5 Z"/></g>
<g><path style="opacity:1" fill="#5609a2" d="M 756.5,498.5 C 758.61,502.502 759.943,506.835 760.5,511.5C 758.39,507.498 757.057,503.165 756.5,498.5 Z"/></g>
<g><path style="opacity:0.227" fill="#d7cbe5" d="M 94.5,499.5 C 94.5,499.833 94.5,500.167 94.5,500.5C 89.5092,506.823 84.1759,512.823 78.5,518.5C 79.412,516.405 80.5787,514.405 82,512.5C 85.7219,507.708 89.8886,503.375 94.5,499.5 Z"/></g>
<g><path style="opacity:0.282" fill="#d7c6e8" d="M 841.5,510.5 C 844.243,512.239 846.243,514.573 847.5,517.5C 844.757,515.761 842.757,513.427 841.5,510.5 Z"/></g>
<g><path style="opacity:0.231" fill="#d9cfe4" d="M 78.5,518.5 C 76.984,521.533 74.984,524.2 72.5,526.5C 73.5293,523.109 75.5293,520.443 78.5,518.5 Z"/></g>
<g><path style="opacity:0.282" fill="#d5c3e7" d="M 847.5,517.5 C 849.914,518.911 851.581,520.911 852.5,523.5C 850.086,522.089 848.419,520.089 847.5,517.5 Z"/></g>
<g><path style="opacity:0.42" fill="#cdbce0" d="M 852.5,523.5 C 854.262,524.262 855.262,525.596 855.5,527.5C 853.738,526.738 852.738,525.404 852.5,523.5 Z"/></g>
<g><path style="opacity:0.231" fill="#d4c9e0" d="M 72.5,526.5 C 61.8199,542.52 52.1533,559.186 43.5,576.5C 50.6267,558.231 60.2933,541.565 72.5,526.5 Z"/></g>
<g><path style="opacity:0.42" fill="#c6aae3" d="M 855.5,527.5 C 857.262,528.262 858.262,529.596 858.5,531.5C 856.738,530.738 855.738,529.404 855.5,527.5 Z"/></g>
<g><path style="opacity:1" fill="#54099b" d="M 160.5,523.5 C 160.473,529.051 159.806,534.384 158.5,539.5C 158.376,533.931 159.043,528.598 160.5,523.5 Z"/></g>
<g><path style="opacity:0.557" fill="#c5b1da" d="M 858.5,531.5 C 860.262,532.262 861.262,533.596 861.5,535.5C 859.738,534.738 858.738,533.404 858.5,531.5 Z"/></g>
<g><path style="opacity:0.278" fill="#d1c2e2" d="M 861.5,535.5 C 862.906,535.973 863.573,536.973 863.5,538.5C 862.094,538.027 861.427,537.027 861.5,535.5 Z"/></g>
<g><path style="opacity:0.278" fill="#d1c2e2" d="M 863.5,538.5 C 864.906,538.973 865.573,539.973 865.5,541.5C 864.094,541.027 863.427,540.027 863.5,538.5 Z"/></g>
<g><path style="opacity:1" fill="#ebe4da" d="M 319.5,540.5 C 339.741,549.301 360.741,555.801 382.5,560C 458.704,575.094 532.704,568.928 604.5,541.5C 608.397,544.609 612.064,547.943 615.5,551.5C 591.764,564.36 566.764,574.194 540.5,581C 486.049,592.591 431.715,592.258 377.5,580C 353.097,573.704 330.097,564.204 308.5,551.5C 311.86,547.473 315.527,543.806 319.5,540.5 Z"/></g>
<g><path style="opacity:0.278" fill="#d1c2e2" d="M 865.5,541.5 C 866.906,541.973 867.573,542.973 867.5,544.5C 866.094,544.027 865.427,543.027 865.5,541.5 Z"/></g>
<g><path style="opacity:0.416" fill="#c0abd7" d="M 868.5,546.5 C 869.906,546.973 870.573,547.973 870.5,549.5C 869.094,549.027 868.427,548.027 868.5,546.5 Z"/></g>
<g><path style="opacity:1" fill="#fbf9f6" d="M 308.5,551.5 C 330.097,564.204 353.097,573.704 377.5,580C 431.715,592.258 486.049,592.591 540.5,581C 566.764,574.194 591.764,564.36 615.5,551.5C 644.881,579.574 666.214,612.907 679.5,651.5C 680.39,657.166 682.057,662.5 684.5,667.5C 684.41,670.152 685.076,672.485 686.5,674.5C 688.633,681.367 690.3,688.367 691.5,695.5C 691.28,700.1 691.946,704.433 693.5,708.5C 693.362,713.414 694.028,718.081 695.5,722.5C 695.5,722.833 695.5,723.167 695.5,723.5C 696.132,738.492 696.465,753.492 696.5,768.5C 696.5,772.5 696.5,776.5 696.5,780.5C 695.011,785.617 694.011,790.951 693.5,796.5C 692.343,801.464 691.343,806.464 690.5,811.5C 687.437,816.952 683.437,821.618 678.5,825.5C 676.227,811.218 668.227,802.218 654.5,798.5C 651.26,797.258 647.926,797.424 644.5,799C 640.66,801.356 636.994,803.856 633.5,806.5C 631.082,803.453 628.082,801.12 624.5,799.5C 618.182,796.678 611.849,796.845 605.5,800C 601.891,803.781 598.224,807.281 594.5,810.5C 591.468,807.485 587.801,805.818 583.5,805.5C 580.729,805.421 578.063,805.921 575.5,807C 564.536,816.084 556.369,827.251 551,840.5C 545.287,853.462 544.121,866.795 547.5,880.5C 548.5,880.5 549.5,880.5 550.5,880.5C 492.494,892.432 434.494,892.432 376.5,880.5C 377.5,880.5 378.5,880.5 379.5,880.5C 383.249,857.584 378.082,836.917 364,818.5C 359.635,812.797 354.135,808.63 347.5,806C 343.642,805.19 339.976,805.357 336.5,806.5C 334.031,807.569 331.698,808.902 329.5,810.5C 324.166,797.999 314.833,793.166 301.5,796C 298.02,798.646 294.686,801.479 291.5,804.5C 281.093,791.194 270.593,791.194 260,804.5C 255.461,812.247 252.628,820.58 251.5,829.5C 247.779,827.646 244.446,825.313 241.5,822.5C 241.5,822.167 241.5,821.833 241.5,821.5C 241.59,818.848 240.924,816.515 239.5,814.5C 239.768,812.901 239.434,811.568 238.5,810.5C 238.59,807.848 237.924,805.515 236.5,803.5C 234.847,794.887 233.514,786.22 232.5,777.5C 231.614,759.183 231.281,740.85 231.5,722.5C 232.332,714.515 233.166,706.515 234,698.5C 236.042,687.333 238.875,676.333 242.5,665.5C 243.924,663.485 244.59,661.152 244.5,658.5C 257.518,617.825 278.851,582.159 308.5,551.5 Z"/></g>
<g><path style="opacity:0.278" fill="#cab8de" d="M 870.5,549.5 C 872.25,550.659 873.25,552.326 873.5,554.5C 871.75,553.341 870.75,551.674 870.5,549.5 Z"/></g>
<g><path style="opacity:1" fill="#500a8e" d="M 769.5,549.5 C 770.889,554.269 771.556,559.269 771.5,564.5C 770.111,559.731 769.444,554.731 769.5,549.5 Z"/></g>
<g><path style="opacity:0.278" fill="#c8b6dc" d="M 875.5,558.5 C 878.207,561.247 879.873,564.58 880.5,568.5C 878.326,565.485 876.659,562.151 875.5,558.5 Z"/></g>
<g><path style="opacity:0.227" fill="#d0c4dd" d="M 43.5,576.5 C 43.2927,579.241 42.2927,581.574 40.5,583.5C 40.7073,580.759 41.7073,578.426 43.5,576.5 Z"/></g>
<g><path style="opacity:0.89" fill="#a672e1" d="M 886.5,581.5 C 887.738,583.214 888.405,585.214 888.5,587.5C 886.72,586.01 886.054,584.01 886.5,581.5 Z"/></g>
<g><path style="opacity:0.227" fill="#d2c6df" d="M 40.5,583.5 C 40.5979,585.553 39.9313,587.22 38.5,588.5C 38.4021,586.447 39.0687,584.78 40.5,583.5 Z"/></g>
<g><path style="opacity:0.667" fill="#b987ee" d="M 888.5,587.5 C 890.267,589.792 891.267,592.458 891.5,595.5C 889.345,593.383 888.345,590.716 888.5,587.5 Z"/></g>
<g><path style="opacity:0.225" fill="#cec2dc" d="M 38.5,588.5 C 37.072,594.784 35.072,600.784 32.5,606.5C 33.5271,600.085 35.5271,594.085 38.5,588.5 Z"/></g>
<g><path style="opacity:1" fill="#5b08b3" d="M 771.5,564.5 C 772.314,566.631 772.814,568.964 773,571.5C 773.829,589.338 773.662,607.005 772.5,624.5C 772.73,604.484 772.397,584.484 771.5,564.5 Z"/></g>
<g><path style="opacity:0.553" fill="#b28fd9" d="M 892.5,599.5 C 893.924,601.515 894.59,603.848 894.5,606.5C 892.837,604.562 892.171,602.228 892.5,599.5 Z"/></g>
<g><path style="opacity:0.451" fill="#bdadd0" d="M 32.5,606.5 C 32.4349,609.428 31.7682,612.095 30.5,614.5C 30.2938,611.505 30.9605,608.838 32.5,606.5 Z"/></g>
<g><path style="opacity:0.451" fill="#bcaccf" d="M 30.5,614.5 C 30.5797,617.781 29.913,620.781 28.5,623.5C 28.4203,620.219 29.087,617.219 30.5,614.5 Z"/></g>
<g><path style="opacity:0.871" fill="#6d1fc0" d="M 111.5,614.5 C 111.501,624.514 111.834,634.514 112.5,644.5C 111.833,644.5 111.5,644.167 111.5,643.5C 110.233,633.692 110.233,624.026 111.5,614.5 Z"/></g>
<g><path style="opacity:0.58" fill="#c8a0f4" d="M 818.5,651.5 C 820.404,651.738 821.738,652.738 822.5,654.5C 820.596,654.262 819.262,653.262 818.5,651.5 Z"/></g>
<g><path style="opacity:1" fill="#c89df5" d="M 679.5,651.5 C 681.943,656.5 683.61,661.834 684.5,667.5C 682.057,662.5 680.39,657.166 679.5,651.5 Z"/></g>
<g><path style="opacity:0.467" fill="#c396f2" d="M 826.5,658.5 C 828.027,658.427 829.027,659.094 829.5,660.5C 827.973,660.573 826.973,659.906 826.5,658.5 Z"/></g>
<g><path style="opacity:1" fill="#cea6f5" d="M 244.5,658.5 C 244.59,661.152 243.924,663.485 242.5,665.5C 242.41,662.848 243.076,660.515 244.5,658.5 Z"/></g>
<g><path style="opacity:1" fill="#cca3f5" d="M 684.5,667.5 C 685.924,669.515 686.59,671.848 686.5,674.5C 685.076,672.485 684.41,670.152 684.5,667.5 Z"/></g>
<g><path style="opacity:0.769" fill="#af7de4" d="M 895.5,671.5 C 895.405,673.786 894.738,675.786 893.5,677.5C 893.054,674.99 893.72,672.99 895.5,671.5 Z"/></g>
<g><path style="opacity:0.306" fill="#b4a9b7" d="M 111.5,643.5 C 111.5,644.167 111.833,644.5 112.5,644.5C 112.678,657.581 113.844,670.581 116,683.5C 118.296,697.075 121.463,710.408 125.5,723.5C 116.395,699.47 111.562,674.47 111,648.5C 110.768,647.263 110.268,646.263 109.5,645.5C 109.5,644.167 110.167,643.5 111.5,643.5 Z"/></g>
<g><path style="opacity:0.38" fill="#c19aed" d="M 30.5,676.5 C 32.256,677.552 32.9227,679.219 32.5,681.5C 34.1667,681.5 35.8333,681.5 37.5,681.5C 35.7354,682.461 33.7354,682.795 31.5,682.5C 31.1667,680.5 30.8333,678.5 30.5,676.5 Z"/></g>
<g><path style="opacity:0.42" fill="#ac9fae" d="M 817.5,649.5 C 817.833,650.167 818.167,650.833 818.5,651.5C 816.75,663.561 814.75,675.728 812.5,688C 811.299,694.414 809.633,700.581 807.5,706.5C 811.415,687.327 814.749,668.327 817.5,649.5 Z"/></g>
<g><path style="opacity:1" fill="#530997" d="M 760.5,694.5 C 760.139,698.915 758.806,702.915 756.5,706.5C 757.261,702.216 758.595,698.216 760.5,694.5 Z"/></g>
<g><path style="opacity:1" fill="#cda5f5" d="M 691.5,695.5 C 693.054,699.567 693.72,703.9 693.5,708.5C 691.946,704.433 691.28,700.1 691.5,695.5 Z"/></g>
<g><path style="opacity:0.592" fill="#a595a8" d="M 807.5,706.5 C 806.765,710.805 805.432,714.805 803.5,718.5C 803.47,713.921 804.804,709.921 807.5,706.5 Z"/></g>
<g><path style="opacity:0.643" fill="#a191a5" d="M 803.5,718.5 C 802.935,722.537 801.601,726.203 799.5,729.5C 799.677,725.292 801.01,721.626 803.5,718.5 Z"/></g>
<g><path style="opacity:1" fill="#c497f5" d="M 693.5,708.5 C 694.972,712.919 695.638,717.586 695.5,722.5C 694.028,718.081 693.362,713.414 693.5,708.5 Z"/></g>
<g><path style="opacity:0.353" fill="#b7acb9" d="M 793.5,743.5 C 790.845,750.817 787.178,757.484 782.5,763.5C 785.663,756.504 789.329,749.838 793.5,743.5 Z"/></g>
<g><path style="opacity:1" fill="#be8cf4" d="M 695.5,723.5 C 696.895,732.964 697.562,742.63 697.5,752.5C 697.499,758.011 697.166,763.344 696.5,768.5C 696.465,753.492 696.132,738.492 695.5,723.5 Z"/></g>
<g><path style="opacity:1" fill="#cfa9f5" d="M 231.5,722.5 C 231.281,740.85 231.614,759.183 232.5,777.5C 231.686,775.369 231.186,773.036 231,770.5C 230.172,754.328 230.339,738.328 231.5,722.5 Z"/></g>
<g><path style="opacity:0.392" fill="#baafbd" d="M 125.5,723.5 C 134.733,745.968 146.067,767.301 159.5,787.5C 146.471,770.795 135.971,752.462 128,732.5C 126.855,729.568 126.022,726.568 125.5,723.5 Z"/></g>
<g><path style="opacity:0.255" fill="#c4bbc6" d="M 779.5,768.5 C 777.822,773.197 775.156,777.197 771.5,780.5C 773.673,776.148 776.34,772.148 779.5,768.5 Z"/></g>
<g><path style="opacity:0.063" fill="#c6bec8" d="M 771.5,780.5 C 771.573,782.027 770.906,783.027 769.5,783.5C 769.427,781.973 770.094,780.973 771.5,780.5 Z"/></g>
<g><path style="opacity:0.012" fill="#d3ccd4" d="M 769.5,783.5 C 769.262,785.404 768.262,786.738 766.5,787.5C 766.738,785.596 767.738,784.262 769.5,783.5 Z"/></g>
<g><path style="opacity:1" fill="#a35ff4" d="M 696.5,780.5 C 696.773,786.216 695.773,791.549 693.5,796.5C 694.011,790.951 695.011,785.617 696.5,780.5 Z"/></g>
<g><path style="opacity:0.035" fill="#cec7cf" d="M 159.5,787.5 C 161.262,788.262 162.262,789.596 162.5,791.5C 160.738,790.738 159.738,789.404 159.5,787.5 Z"/></g>
<g><path style="opacity:0.004" fill="#d7d2d8" d="M 766.5,787.5 C 766.262,789.404 765.262,790.738 763.5,791.5C 763.738,789.596 764.738,788.262 766.5,787.5 Z"/></g>
<g><path style="opacity:0.035" fill="#ccc4ce" d="M 162.5,791.5 C 164.262,792.262 165.262,793.596 165.5,795.5C 163.738,794.738 162.738,793.404 162.5,791.5 Z"/></g>
<g><path style="opacity:1" fill="#fcbc1b" d="M 329.5,810.5 C 326.663,816.171 324.496,822.171 323,828.5C 322.076,835.608 322.409,842.608 324,849.5C 326.212,834.823 331.045,820.989 338.5,808C 338.164,806.97 337.497,806.47 336.5,806.5C 339.976,805.357 343.642,805.19 347.5,806C 354.135,808.63 359.635,812.797 364,818.5C 378.082,836.917 383.249,857.584 379.5,880.5C 378.5,880.5 377.5,880.5 376.5,880.5C 330.947,872.542 289.28,855.542 251.5,829.5C 252.628,820.58 255.461,812.247 260,804.5C 270.593,791.194 281.093,791.194 291.5,804.5C 294.686,801.479 298.02,798.646 301.5,796C 314.833,793.166 324.166,797.999 329.5,810.5 Z"/></g>
<g><path style="opacity:0.09" fill="#cac0cc" d="M 762.5,792.5 C 761.92,794.749 760.587,796.415 758.5,797.5C 759.08,795.251 760.413,793.585 762.5,792.5 Z"/></g>
<g><path style="opacity:0.004" fill="#d0c9d2" d="M 165.5,795.5 C 167.914,796.911 169.581,798.911 170.5,801.5C 168.086,800.089 166.419,798.089 165.5,795.5 Z"/></g>
<g><path style="opacity:1" fill="#fcbb1a" d="M 624.5,799.5 C 624.062,799.435 623.728,799.601 623.5,800C 630.567,813.936 633.9,828.77 633.5,844.5C 638.569,834.349 639.736,823.683 637,812.5C 636.015,810.359 634.848,808.359 633.5,806.5C 636.994,803.856 640.66,801.356 644.5,799C 647.926,797.424 651.26,797.258 654.5,798.5C 654.062,798.435 653.728,798.601 653.5,799C 665.191,808.574 669.191,820.74 665.5,835.5C 630.197,857.975 591.864,872.975 550.5,880.5C 549.5,880.5 548.5,880.5 547.5,880.5C 544.121,866.795 545.287,853.462 551,840.5C 556.369,827.251 564.536,816.084 575.5,807C 578.063,805.921 580.729,805.421 583.5,805.5C 587.479,810.776 590.979,816.442 594,822.5C 597.628,833.343 600.795,844.343 603.5,855.5C 606.141,839.291 603.141,824.291 594.5,810.5C 598.224,807.281 601.891,803.781 605.5,800C 611.849,796.845 618.182,796.678 624.5,799.5 Z"/></g>
<g><path style="opacity:1" fill="#ef931b" d="M 654.5,798.5 C 668.227,802.218 676.227,811.218 678.5,825.5C 674.816,829.528 670.482,832.861 665.5,835.5C 669.191,820.74 665.191,808.574 653.5,799C 653.728,798.601 654.062,798.435 654.5,798.5 Z"/></g>
<g><path style="opacity:1" fill="#f19411" d="M 624.5,799.5 C 628.082,801.12 631.082,803.453 633.5,806.5C 634.848,808.359 636.015,810.359 637,812.5C 639.736,823.683 638.569,834.349 633.5,844.5C 633.9,828.77 630.567,813.936 623.5,800C 623.728,799.601 624.062,799.435 624.5,799.5 Z"/></g>
<g><path style="opacity:0.071" fill="#cfc6d1" d="M 757.5,798.5 C 756.92,800.749 755.587,802.415 753.5,803.5C 754.08,801.251 755.413,799.585 757.5,798.5 Z"/></g>
<g><path style="opacity:0.004" fill="#ccc4ce" d="M 170.5,801.5 C 174.234,804.231 177.234,807.564 179.5,811.5C 175.766,808.769 172.766,805.436 170.5,801.5 Z"/></g>
<g><path style="opacity:1" fill="#f1940f" d="M 583.5,805.5 C 587.801,805.818 591.468,807.485 594.5,810.5C 603.141,824.291 606.141,839.291 603.5,855.5C 600.795,844.343 597.628,833.343 594,822.5C 590.979,816.442 587.479,810.776 583.5,805.5 Z"/></g>
<g><path style="opacity:1" fill="#f29610" d="M 336.5,806.5 C 337.497,806.47 338.164,806.97 338.5,808C 331.045,820.989 326.212,834.823 324,849.5C 322.409,842.608 322.076,835.608 323,828.5C 324.496,822.171 326.663,816.171 329.5,810.5C 331.698,808.902 334.031,807.569 336.5,806.5 Z"/></g>
<g><path style="opacity:1" fill="#b073f4" d="M 236.5,803.5 C 237.924,805.515 238.59,807.848 238.5,810.5C 237.076,808.485 236.41,806.152 236.5,803.5 Z"/></g>
<g><path style="opacity:0.667" fill="#b3a5b6" d="M 179.5,811.5 C 186.11,816.441 192.11,822.108 197.5,828.5C 190.89,823.559 184.89,817.892 179.5,811.5 Z"/></g>
<g><path style="opacity:0.02" fill="#dad3dc" d="M 749.5,807.5 C 745.833,813.167 741.167,817.833 735.5,821.5C 739.833,816.5 744.5,811.833 749.5,807.5 Z"/></g>
<g><path style="opacity:1" fill="#b47af4" d="M 239.5,814.5 C 240.924,816.515 241.59,818.848 241.5,821.5C 240.076,819.485 239.41,817.152 239.5,814.5 Z"/></g>
<g><path style="opacity:0.729" fill="#b1a3b4" d="M 197.5,828.5 C 200.427,829.757 202.761,831.757 204.5,834.5C 201.573,833.243 199.239,831.243 197.5,828.5 Z"/></g>
<g><path style="opacity:0.031" fill="#dbd5dd" d="M 728.5,828.5 C 727.738,830.262 726.404,831.262 724.5,831.5C 725.262,829.738 726.596,828.738 728.5,828.5 Z"/></g>
<g><path style="opacity:0.02" fill="#ddd5de" d="M 721.5,834.5 C 721.027,835.906 720.027,836.573 718.5,836.5C 718.973,835.094 719.973,834.427 721.5,834.5 Z"/></g>
<g><path style="opacity:0.439" fill="#bcafbf" d="M 204.5,834.5 C 206.749,835.08 208.415,836.413 209.5,838.5C 207.251,837.92 205.585,836.587 204.5,834.5 Z"/></g>
<g><path style="opacity:0.024" fill="#dad4dc" d="M 716.5,838.5 C 716.027,839.906 715.027,840.573 713.5,840.5C 713.973,839.094 714.973,838.427 716.5,838.5 Z"/></g>
<g><path style="opacity:0.227" fill="#c5bbc7" d="M 209.5,838.5 C 211.749,839.08 213.415,840.413 214.5,842.5C 212.251,841.92 210.585,840.587 209.5,838.5 Z"/></g>
<g><path style="opacity:0.396" fill="#c6b9c8" d="M 214.5,842.5 C 216.404,842.738 217.738,843.738 218.5,845.5C 216.596,845.262 215.262,844.262 214.5,842.5 Z"/></g>
<g><path style="opacity:0.376" fill="#bfb3c2" d="M 218.5,845.5 C 220.027,845.427 221.027,846.094 221.5,847.5C 219.973,847.573 218.973,846.906 218.5,845.5 Z"/></g>
<g><path style="opacity:0.008" fill="#e5dfe6" d="M 707.5,845.5 C 707.027,846.906 706.027,847.573 704.5,847.5C 704.973,846.094 705.973,845.427 707.5,845.5 Z"/></g>
<g><path style="opacity:0.024" fill="#d9d2db" d="M 704.5,847.5 C 704.027,848.906 703.027,849.573 701.5,849.5C 701.973,848.094 702.973,847.427 704.5,847.5 Z"/></g>
<g><path style="opacity:0.298" fill="#c7bbc8" d="M 225.5,850.5 C 227.027,850.427 228.027,851.094 228.5,852.5C 226.973,852.573 225.973,851.906 225.5,850.5 Z"/></g>
<g><path style="opacity:0.286" fill="#c8becb" d="M 228.5,852.5 C 230.027,852.427 231.027,853.094 231.5,854.5C 229.973,854.573 228.973,853.906 228.5,852.5 Z"/></g>
<g><path style="opacity:0.004" fill="#e2dfe4" d="M 697.5,852.5 C 697.027,853.906 696.027,854.573 694.5,854.5C 694.973,853.094 695.973,852.427 697.5,852.5 Z"/></g>
<g><path style="opacity:0.259" fill="#ccc2ce" d="M 231.5,854.5 C 233.027,854.427 234.027,855.094 234.5,856.5C 232.973,856.573 231.973,855.906 231.5,854.5 Z"/></g>
<g><path style="opacity:0.004" fill="#e3dfe4" d="M 694.5,854.5 C 694.027,855.906 693.027,856.573 691.5,856.5C 691.973,855.094 692.973,854.427 694.5,854.5 Z"/></g>
<g><path style="opacity:0.224" fill="#d2c9d4" d="M 234.5,856.5 C 236.027,856.427 237.027,857.094 237.5,858.5C 235.973,858.573 234.973,857.906 234.5,856.5 Z"/></g>
<g><path style="opacity:0.302" fill="#c3b9c7" d="M 242.5,861.5 C 244.027,861.427 245.027,862.094 245.5,863.5C 243.973,863.573 242.973,862.906 242.5,861.5 Z"/></g>
<g><path style="opacity:0.216" fill="#cfc7d3" d="M 245.5,863.5 C 247.027,863.427 248.027,864.094 248.5,865.5C 246.973,865.573 245.973,864.906 245.5,863.5 Z"/></g>
<g><path style="opacity:0.251" fill="#c5bcc9" d="M 254.5,868.5 C 256.027,868.427 257.027,869.094 257.5,870.5C 255.973,870.573 254.973,869.906 254.5,868.5 Z"/></g>
<g><path style="opacity:0.157" fill="#d3cdd4" d="M 261.5,872.5 C 263.027,872.427 264.027,873.094 264.5,874.5C 262.973,874.573 261.973,873.906 261.5,872.5 Z"/></g>
<g><path style="opacity:0.875" fill="#99849e" d="M 325.5,899.5 C 329.162,899.723 332.495,900.723 335.5,902.5C 331.838,902.277 328.505,901.277 325.5,899.5 Z"/></g>
<g><path style="opacity:0.655" fill="#9b87a0" d="M 346.5,905.5 C 349.152,905.41 351.485,906.076 353.5,907.5C 350.848,907.59 348.515,906.924 346.5,905.5 Z"/></g>
<g><path style="opacity:0.99" fill="#7a5e7f" d="M 571.5,907.5 C 567.453,909.26 563.12,910.26 558.5,910.5C 558.611,909.883 558.944,909.383 559.5,909C 563.44,907.985 567.44,907.485 571.5,907.5 Z"/></g>
<g><path style="opacity:0.99" fill="#816786" d="M 552.5,911.5 C 549.411,912.785 546.078,913.451 542.5,913.5C 542.611,912.883 542.944,912.383 543.5,912C 546.482,911.502 549.482,911.335 552.5,911.5 Z"/></g>
<g><path style="opacity:0.99" fill="#7b6081" d="M 381.5,913.5 C 385.329,912.931 388.663,913.598 391.5,915.5C 387.96,915.247 384.627,914.581 381.5,913.5 Z"/></g>
<g><path style="opacity:0.991" fill="#7e6383" d="M 541.5,913.5 C 538.091,914.903 534.425,915.57 530.5,915.5C 530.611,914.883 530.944,914.383 531.5,914C 534.817,913.502 538.15,913.335 541.5,913.5 Z"/></g>
<g><path style="opacity:0.929" fill="#8b7491" d="M 393.5,915.5 C 398.731,915.444 403.731,916.111 408.5,917.5C 403.269,917.556 398.269,916.889 393.5,915.5 Z"/></g>
<g><path style="opacity:0.99" fill="#5a3961" d="M 409.5,917.5 C 420.842,917.741 432.175,918.241 443.5,919C 445.382,919.198 447.048,919.698 448.5,920.5C 435.276,920.485 422.276,919.485 409.5,917.5 Z"/></g>
</svg>
